<svg xmlns="http://www.w3.org/2000/svg" width="22.111" height="41.93" viewBox="0 0 22.111 41.93">
  <g id="Group" transform="translate(-10.991 -6.997)">
    <path id="Vector" d="M4,5.841c-1.29,1.08-4,0-4,0A4.773,4.773,0,0,0,.429,4.364a1.148,1.148,0,0,0,.019-.142A8.144,8.144,0,0,0,.506,3a4.5,4.5,0,0,0-.039-.726A13.181,13.181,0,0,0,.106.106L3.57,0a6.925,6.925,0,0,0-.245,2.277,8.134,8.134,0,0,0,.09,1.032c.042.329.087.581.142.845l.029.135A12.817,12.817,0,0,0,4,5.841Z" transform="translate(20.002 34.025)" fill="#cd8b6d"/>
    <path id="Vector-2" data-name="Vector" d="M0,5.584a8.863,8.863,0,0,1,5.064-5A8.682,8.682,0,0,1,6.725.13a10.114,10.114,0,0,1,2.351-.1,24.018,24.018,0,0,1,4.335.645,11.388,11.388,0,0,1,2.216.806,7.21,7.21,0,0,1,3.935,5.038C20.662,10.67,1.252,12,0,5.584Z" transform="translate(12.412 38.91)" fill="#cd8b6d"/>
    <path id="Vector-3" data-name="Vector" d="M0,5A8.784,8.784,0,0,1,4.406.287c.21-.1.429-.2.645-.287,2.464,1.474,7.792,3.806,10.563.9a8.008,8.008,0,0,1,1.2.722,7.329,7.329,0,0,1,2.738,4.315C20.662,10.085,1.252,11.417,0,5Z" transform="translate(12.412 39.495)" fill="#adc0e0"/>
    <path id="Vector-4" data-name="Vector" d="M12.42,1.622C10.137,4.815,3.39,2.032,0,.287.21.184.429.087.645,0,3.109,1.474,8.437,3.806,11.208.9a8.008,8.008,0,0,1,1.213.722Z" transform="translate(16.819 39.495)" fill="#fff"/>
    <path id="Vector-5" data-name="Vector" d="M15.833.7C13.195-.405,9.937.243,7.167.23,5.393.23,3.619.095,1.832,0,1.026-.034.648.172.419.911a.21.21,0,0,0,.065.213C0,2.952-.426,5.268.806,6.826A4.845,4.845,0,0,0,6.56,8.438a.229.229,0,0,0,.087-.058,20.983,20.983,0,0,1,3.138.645,2.746,2.746,0,0,0,1.638.219.132.132,0,0,0,.135.019C13.8,8.422,16.633,8.016,17.51,5.42,18.11,3.626,17.749,1.507,15.833.7Z" transform="translate(12.955 25.606)" fill="#4a1d1d"/>
    <path id="Vector-6" data-name="Vector" d="M.656.707A1.332,1.332,0,0,1,1.262.256a3.312,3.312,0,0,1,.7-.2,1.374,1.374,0,0,1,1.371.3,1.987,1.987,0,0,1,.323,1.1C3.723,3.042,2.385,3.923,1.011,4.3.75,4.371.3,4.623.1,4.323-.215,3.781.263,1.278.656.707Z" transform="translate(29.447 23.977)" fill="#cd8b6d"/>
    <path id="Vector-7" data-name="Vector" d="M.4.959S2.081-.6,2.307.259a3.274,3.274,0,0,1-.135,1.8S2.2.936,1.262,1.34c0,0,.323,1.88-1.093,1A1.039,1.039,0,0,1,.4.959Z" transform="translate(29.703 24.929)" fill="#b66c50"/>
    <path id="Vector-8" data-name="Vector" d="M3,.707A1.332,1.332,0,0,0,2.393.256a3.312,3.312,0,0,0-.7-.2,1.374,1.374,0,0,0-1.371.3A1.987,1.987,0,0,0,0,1.452C-.068,3.042,1.273,3.923,2.644,4.3c.261.071.713.323.906.023C3.873,3.781,3.4,1.278,3,.707Z" transform="translate(10.991 23.977)" fill="#cd8b6d"/>
    <path id="Vector-9" data-name="Vector" d="M1.978.959S.295-.6.066.259A3.293,3.293,0,0,0,.2,2.056S.175.936,1.111,1.34c0,0-.323,1.88,1.093,1A1.035,1.035,0,0,0,1.978.959Z" transform="translate(12.018 24.929)" fill="#b66c50"/>
    <path id="Vector-10" data-name="Vector" d="M17.4,10.753c-.032.306-.071.616-.113.929a52.3,52.3,0,0,1-1.077,5.9c-.929,3.657-5.454,5.454-7.066,5.331C.839,21.8.407,16.1.465,15.475a18.561,18.561,0,0,0-.132-2.99C.3,11.969.223,11.44.149,10.911a9.163,9.163,0,0,1-.09-2.683A.987.987,0,0,1,.081,8.1,12.9,12.9,0,0,1,.855,5.483C1.91,2.9,4.042.045,7.087,0A6.886,6.886,0,0,1,9.225.323a12.788,12.788,0,0,1,2.861,1.316C14,2.8,15.914,4.116,16.872,6.225A8.478,8.478,0,0,1,17.4,10.753Z" transform="translate(13.176 12.603)" fill="#ffc29c"/>
    <path id="Vector-11" data-name="Vector" d="M3.27,1.978A8.973,8.973,0,0,0,2,3.194a7.621,7.621,0,0,0-.89,1.264A9.031,9.031,0,0,0,.016,9.335h0l.042.681a16.649,16.649,0,0,0,.968,4.132h0c.087.239.181.477.274.716a.277.277,0,0,0,.035.061h0a.29.29,0,0,0,.539-.142A6.458,6.458,0,0,1,3.29,10.59C4.154,9.6,5.225,8.767,6.154,7.851A11.8,11.8,0,0,0,8.231,5.2l.132-.245a8.734,8.734,0,0,0,.661-1.642,5.889,5.889,0,0,1,.645-.906.323.323,0,0,0,.323-.323C9.914-1.8,4.893.7,3.27,1.978Z" transform="translate(11.781 9.357)" fill="#603030"/>
    <path id="Vector-12" data-name="Vector" d="M7.337.136,7.205.381C5.073.19,2.838,2.78,1.89,4.432A15.588,15.588,0,0,0,.31,10.089a.277.277,0,0,1-.035-.061C.181,9.789.087,9.55,0,9.311A10.237,10.237,0,0,1,2.419,2.98C3.577,1.626,5.36-.567,7.337.136Z" transform="translate(12.797 14.199)" fill="#774545"/>
    <path id="Vector-13" data-name="Vector" d="M0,6.837A10.369,10.369,0,0,1,1.061,5.309C2.935,3.09,5.976.074,9.066,0c.11,0,.106.161,0,.171C6.289.416,3.354,3.151,1.648,5.212a16.245,16.245,0,0,0-1.6,2.309Z" transform="translate(11.797 11.858)" fill="#774545"/>
    <path id="Vector-14" data-name="Vector" d="M8.053.661C6.683.632,5.151.145,3.809.609A11.14,11.14,0,0,0,.152,2.677L0,2.812A7.621,7.621,0,0,1,.89,1.548c.048-.035.094-.065.142-.094A8.165,8.165,0,0,1,4.3.029,14.769,14.769,0,0,1,8.082.435C8.211.454,8.179.661,8.053.661Z" transform="translate(12.89 11.004)" fill="#774545"/>
    <path id="Vector-15" data-name="Vector" d="M16.3,12.788a11.233,11.233,0,0,0-1.338-4.36l-.293-.7c-.074-.177-.145-.358-.213-.545-.393-1.058-.684-2.132-1.08-3.154l-.323-.739A7.934,7.934,0,0,0,11.8,1.339,3.958,3.958,0,0,0,7.567.188c-.126.039-.248.077-.374.123a6.37,6.37,0,0,0-.926.416,6.68,6.68,0,0,0-.613.381c-.126.081-.248.164-.368.258C4.7,1.8,4.149,2.29,3.61,2.761l-.223.19c-.539.432-1.206.787-1.771,1.216l-.142.11a3.661,3.661,0,0,0-.555.539.374.374,0,0,0-.645.016C-.489,6.393.5,8.154,1.307,9.521c1.168,1.987,2.758,2.648,4.98,3.174A12.5,12.5,0,0,1,10.064,14.2c.539.323,1.061.71,1.587,1.061a5.889,5.889,0,0,1,1.026.868c.2.2.393.768.645.968.864.645,1.526.119,1.99-.668.065-.11.126-.219.184-.323a9.543,9.543,0,0,0,.581-1.571,6.144,6.144,0,0,0,.216-1.168,5.557,5.557,0,0,0,.013-.581Z" transform="translate(16.666 6.997)" fill="#4a1d1d"/>
    <path id="Vector-16" data-name="Vector" d="M.145,0C1.9,3.977,6.9,5.522,10.511,7.786a7.4,7.4,0,0,1,3.354,3.651c.058.164.11.323.152.49a3.025,3.025,0,0,1-.184.323,5.457,5.457,0,0,0-1.29-2.458C11.017,8.134,8.869,7.166,6.9,6.138,4.054,4.651,1.232,2.912,0,.1Z" transform="translate(18.145 11.161)" fill="#703838"/>
    <path id="Vector-17" data-name="Vector" d="M0,.194C.245.581.506.942.761,1.28A15.885,15.885,0,0,0,5.818,5.225C8.457,6.754,11.192,8.266,12.9,10.6a5.557,5.557,0,0,0,0-.564A18.525,18.525,0,0,0,7.924,6.112a34.163,34.163,0,0,1-5.918-3.87A9.618,9.618,0,0,1,.21,0Z" transform="translate(20.06 9.752)" fill="#703838"/>
    <path id="Vector-18" data-name="Vector" d="M9.679,7.324a7.1,7.1,0,0,0-1.613-.832C6.36,5.847,4.415,5.373,2.961,4.212A10.114,10.114,0,0,1,0,.258C.119.164.242.081.368,0A9.785,9.785,0,0,0,1.545,2.045,10.2,10.2,0,0,0,6.77,5.5,16.62,16.62,0,0,1,9.379,6.625Z" transform="translate(21.953 8.101)" fill="#703838"/>
    <path id="Vector-19" data-name="Vector" d="M6.17,3.841A9.676,9.676,0,0,1,.919,1.464,5.483,5.483,0,0,1,0,.123C.126.077.248.039.374,0A7.45,7.45,0,0,0,2.6,2.177,10.24,10.24,0,0,0,5.863,3.1Z" transform="translate(23.876 7.181)" fill="#703838"/>
    <g id="Group-2" data-name="Group" opacity="0.4">
      <path id="Vector-20" data-name="Vector" d="M2.9.871c0,.484-.645.874-1.448.874S0,1.355,0,.871.645,0,1.448,0,2.9.39,2.9.871Z" transform="translate(25.323 27.152)" fill="#db5d7b" opacity="0.4"/>
      <path id="Vector-21" data-name="Vector" d="M2.893.871c0,.484-.645.874-1.448.874S0,1.355,0,.871.645,0,1.445,0,2.893.39,2.893.871Z" transform="translate(15.622 27.465)" fill="#db5d7b" opacity="0.4"/>
    </g>
    <path id="Vector-22" data-name="Vector" d="M2.328,2.975c-.374,0-.568.323-.848.435a6.812,6.812,0,0,1,.2-1.416A7.821,7.821,0,0,0,1.715.346V.327c0-.239-.119-.471-.374-.216a1.622,1.622,0,0,0-.29.99A17.269,17.269,0,0,1,.893,3.075c-.21-.181-.445-.41-.7-.258-.384.226-.1.7.087.932.226.281.751.839,1.168.726A1.642,1.642,0,0,0,2.512,3.217a.194.194,0,0,0-.184-.242Z" transform="translate(20.651 24.035)" fill="#cd8b6d"/>
    <path id="Vector-23" data-name="Vector" d="M4.419.418A2.82,2.82,0,0,0,2.106.1a2.817,2.817,0,0,0-1.887.932c-.6.874.171,1.484.561,2.238.065.126.2.074.245-.029a.123.123,0,0,0,.081-.087,1.635,1.635,0,0,0,.068-.429.1.1,0,0,0,0-.071A2.166,2.166,0,0,1,3.316,1.073c.984-.058,1.1.848,1.358,1.593,0,.019.016.039.023.061s.052.139.081.2c.106.223.087.261.464-.129C5.854,2.141,5.2,1.038,4.419.418Z" transform="translate(15 22.221)" fill="#390a0a"/>
    <path id="Vector-24" data-name="Vector" d="M0,2.035A2.054,2.054,0,0,0,2.067,4.074,2.054,2.054,0,0,0,4.138,2.035,2.051,2.051,0,0,0,2.067,0,2.051,2.051,0,0,0,0,2.035Z" transform="translate(15.864 22.872)" fill="#fff"/>
    <path id="Vector-25" data-name="Vector" d="M2.58,1.658A1.509,1.509,0,0,1,1.29,3.316,1.509,1.509,0,0,1,0,1.658,1.509,1.509,0,0,1,1.29,0,1.509,1.509,0,0,1,2.58,1.658Z" transform="translate(16.732 23.327)" fill="#2b80b2"/>
    <path id="Vector-26" data-name="Vector" d="M2.242,1.438A1.308,1.308,0,0,1,1.122,2.874,1.312,1.312,0,0,1,0,1.438,1.313,1.313,0,0,1,1.122,0,1.309,1.309,0,0,1,2.242,1.438Z" transform="translate(16.883 23.546)" fill="#390a0a"/>
    <path id="Vector-27" data-name="Vector" d="M.948.323C.948.5.736.645.474.645S0,.5,0,.323.212,0,.474,0,.948.144.948.323Z" transform="translate(18.032 23.546)" fill="#fff"/>
    <path id="Vector-28" data-name="Vector" d="M.25,2.793c.377.39.358.352.461.129.032-.065.058-.135.084-.2a.638.638,0,0,0,.023-.061C1.076,1.912,1.14,1,2.176,1.064A2.119,2.119,0,0,1,4.317,2.641a.1.1,0,0,0-.016.071,1.635,1.635,0,0,0,.068.429.123.123,0,0,0,.081.087c.042.1.181.155.245.029.39-.755,1.158-1.364.558-2.238A2.83,2.83,0,0,0,3.369.087,2.92,2.92,0,0,0,1.056.409C.286,1.041-.379,2.144.25,2.793Z" transform="translate(23.219 22.218)" fill="#390a0a"/>
    <path id="Vector-29" data-name="Vector" d="M0,2.035A2.054,2.054,0,0,0,2.067,4.074,2.054,2.054,0,0,0,4.135,2.035,2.051,2.051,0,0,0,2.067,0,2.051,2.051,0,0,0,0,2.035Z" transform="translate(23.792 22.872)" fill="#fff"/>
    <path id="Vector-30" data-name="Vector" d="M2.58,1.658A1.511,1.511,0,0,1,1.29,3.316,1.511,1.511,0,0,1,0,1.658,1.509,1.509,0,0,1,1.29,0,1.509,1.509,0,0,1,2.58,1.658Z" transform="translate(24.543 23.327)" fill="#2b80b2"/>
    <path id="Vector-31" data-name="Vector" d="M2.238,1.438A1.306,1.306,0,0,1,1.119,2.874,1.308,1.308,0,0,1,0,1.438,1.311,1.311,0,0,1,1.119,0,1.309,1.309,0,0,1,2.238,1.438Z" transform="translate(24.711 23.546)" fill="#390a0a"/>
    <path id="Vector-32" data-name="Vector" d="M.948.323C.948.5.736.645.474.645S0,.5,0,.323.212,0,.474,0,.948.144.948.323Z" transform="translate(25.859 23.546)" fill="#fff"/>
    <path id="Vector-33" data-name="Vector" d="M7.2,0a10.611,10.611,0,0,1-.887,2.206,1.613,1.613,0,0,1-.1.177C5.244,4.07,3.5,5.467,1,1.925a.481.481,0,0,0-.048-.065C.645,1.422.329.91,0,.316.155.368,4.2,1.687,7.2,0Z" transform="translate(18.586 29.21)" fill="#fff"/>
    <path id="Vector-34" data-name="Vector" d="M5.36.345a1.613,1.613,0,0,1-.1.177A13.723,13.723,0,0,1,3.445.59,22.87,22.87,0,0,1,.048.065.481.481,0,0,0,0,0,18.106,18.106,0,0,0,2.9.464,17.958,17.958,0,0,0,5.36.345Z" transform="translate(19.535 31.071)" fill="#cd8b6d"/>
    <path id="Vector-35" data-name="Vector" d="M.072,3.569S-.312-.649,5.835,1.505A5.36,5.36,0,0,0,5.977.45C5.941.218-.761-1.449.072,3.569Z" transform="translate(14.122 20.293)" fill="#390a0a"/>
    <path id="Vector-36" data-name="Vector" d="M5.909,3.569S6.292-.649.145,1.505A5.567,5.567,0,0,1,0,.45C.039.218,6.741-1.449,5.909,3.569Z" transform="translate(23.888 20.293)" fill="#390a0a"/>
    <path id="Vector-37" data-name="Vector" d="M0,0,1.139,7.908l.755.481L.639.348Z" transform="translate(13.11 27.82)" fill="#24b6bc"/>
    <path id="Vector-38" data-name="Vector" d="M1.1,0,.7,7.982,0,8.531.49.41Z" transform="translate(29.394 27.513)" fill="#24b6bc"/>
  </g>
</svg>
